# xmcd CD database file
#
# Track frame offsets:
#	150
#	12730
#	34300
#	52240
#	72670
#	93027
#	111345
#	127190
#	145887
#	166715
#	185032
#	202512
#	220482
#	242900
#
# Disc length: 3517 seconds
#
# Revision: 0
# Processed by: cddbd v1.5.2PL0 Copyright (c) Steve Scherf et al.
# Submitted via: CDex 1.50Beta7
#
DISCID=d90dbb0e
DTITLE=The Blues Band - Brassed Up
DYEAR=1999
DGENRE=Blues
TTITLE0=Swing Out Dave
TTITLE1=Baby Please Don't Go
TTITLE2=What You Wanted
TTITLE3=Losing You Put The Blues In Me
TTITLE4=Stubborn Kind Of Fellow
TTITLE5=Take Me To The Red Line
TTITLE6=2K Shuffle
TTITLE7=I'm Your Man
TTITLE8=Velocity and Love
TTITLE9=The Grass Is Greener
TTITLE10=People Get Ready
TTITLE11=Guitar Song
TTITLE12=Got To Be The Blues
TTITLE13=Creole Love Call
EXTD=YEAR: 1999
EXTT0=
EXTT1=
EXTT2=
EXTT3=
EXTT4=
EXTT5=
EXTT6=
EXTT7=
EXTT8=
EXTT9=
EXTT10=
EXTT11=
EXTT12=
EXTT13=
PLAYORDER=
